<svg width="18" height="18" viewBox="0 0 18 18" fill="none" xmlns="http://www.w3.org/2000/svg">
<path fill-rule="evenodd" clip-rule="evenodd" d="M8.01758 1.48499C8.01758 4.48499 10.4551 6.92248 13.4551 6.92248V8.04749C10.4588 8.04749 8.01758 10.485 8.01758 13.485H6.89258C6.89258 10.485 4.45508 8.04749 1.45508 8.04749V6.92248C4.45508 6.92248 6.89258 4.48499 6.89258 1.48499H8.01758ZM4.10258 7.48498C5.59508 8.14499 6.79508 9.34499 7.45508 10.8375C8.11508 9.34499 9.31508 8.14499 10.8076 7.48498C9.31508 6.82499 8.11508 5.62499 7.45508 4.13249C6.79508 5.62499 5.59508 6.82499 4.10258 7.48498ZM12.9376 10.5H14.0626C14.0626 11.8425 15.1576 12.9375 16.5001 12.9375V14.0625C15.1576 14.0625 14.0626 15.1575 14.0626 16.5H12.9376C12.9376 15.1575 11.8426 14.0625 10.5001 14.0625V12.9375C11.8426 12.9375 12.9376 11.8425 12.9376 10.5ZM12.4126 13.5C12.8514 13.7812 13.2226 14.1525 13.5001 14.5875C13.7814 14.1487 14.1526 13.7775 14.5876 13.5C14.1489 13.2187 13.7776 12.8475 13.5001 12.4125C13.2189 12.8512 12.8476 13.2225 12.4126 13.5Z" fill="#171717" fill-opacity="0.65"/>
</svg>
