<svg width="22" height="22" viewBox="0 0 22 22" fill="none" xmlns="http://www.w3.org/2000/svg">
<path fill-rule="evenodd" clip-rule="evenodd" d="M11.8113 15.2854C11.5867 15.51 11.2933 15.62 11 15.62C10.7067 15.62 10.4133 15.51 10.1888 15.2854L5.93083 11.0275L6.9025 10.0558L10.3125 13.4658V2.75H11.6875V13.4658L15.0975 10.0558L16.0692 11.0275L11.8113 15.2854ZM17.875 16.7292V14.2083H19.25V16.7292C19.25 18.1179 18.1179 19.25 16.7292 19.25H5.27083C3.88208 19.25 2.75 18.1179 2.75 16.7292V14.2083H4.125V16.7292C4.125 17.3617 4.63833 17.875 5.27083 17.875H16.7292C17.3617 17.875 17.875 17.3617 17.875 16.7292Z" fill="#171717"/>
</svg>
